<?xml version="1.0" encoding="UTF-8" standalone="no"?>
<!-- Generator: Adobe Illustrator 27.7.0, SVG Export Plug-In . SVG Version: 6.00 Build 0)  -->

<svg
   version="1.1"
   id="Layer_1"
   x="0px"
   y="0px"
   viewBox="0 0 123.86252 20.15365"
   xml:space="preserve"
   sodipodi:docname="LOGO.svg"
   width="123.86254"
   height="20.15365"
   inkscape:version="1.3 (0e150ed6c4, 2023-07-21)"
   xmlns:inkscape="http://www.inkscape.org/namespaces/inkscape"
   xmlns:sodipodi="http://sodipodi.sourceforge.net/DTD/sodipodi-0.dtd"
   xmlns="http://www.w3.org/2000/svg"
   xmlns:svg="http://www.w3.org/2000/svg"><defs
   id="defs1" /><sodipodi:namedview
   id="namedview1"
   pagecolor="#ffffff"
   bordercolor="#000000"
   borderopacity="0.25"
   inkscape:showpageshadow="2"
   inkscape:pageopacity="0.0"
   inkscape:pagecheckerboard="0"
   inkscape:deskcolor="#d1d1d1"
   inkscape:zoom="16"
   inkscape:cx="68.1875"
   inkscape:cy="7.0625"
   inkscape:window-width="2880"
   inkscape:window-height="1514"
   inkscape:window-x="-11"
   inkscape:window-y="-11"
   inkscape:window-maximized="1"
   inkscape:current-layer="Layer_1" />&#10;<style
   type="text/css"
   id="style1">&#10;	.st0{fill:#785835;}&#10;</style>&#10;<path
   class="st0"
   d="M 123.85893,20.16651 H 0.00893802 V 0.00650972 H 123.85893 Z m -1.56,-18.2000003 H 2.168938 V 16.24651 H 122.29893 Z M 14.708939,14.50651 c 0.74,-0.27 1.379999,-0.65 1.909999,-1.14 0.53,-0.49 0.94,-1.07 1.22,-1.73 0.28,-0.66 0.43,-1.38 0.43,-2.1600005 0,-0.7899998 -0.14,-1.5299998 -0.41,-2.2199998 -0.28,-0.69 -0.67,-1.28 -1.18,-1.79 -0.51,-0.5 -1.11,-0.89 -1.82,-1.17 -0.71,-0.28 -1.48,-0.41 -2.32,-0.41 h -6.45 v 0.43 c 0.56,0.04 0.96,0.12 1.21,0.26 0.25,0.14 0.38,0.4 0.38,0.78 V 13.21651 c 0,0.34 -0.05,0.6 -0.14,0.78 -0.09,0.18 -0.25,0.3 -0.46,0.36 -0.22,0.07 -0.55,0.11 -0.98,0.12 v 0.43 h 6.200001 c 0.86,0.01 1.67,-0.13 2.41,-0.4 z m -6.500001,-0.31 c -0.16,0.19 -0.43,0.29 -0.83,0.29 0.15,-0.07 0.25,-0.15 0.33,-0.24 0.07,-0.09 0.13,-0.23 0.16,-0.41 0.04,-0.18 0.05,-0.43 0.05,-0.76 V 5.5565097 c 0,-0.35 -0.04,-0.61 -0.11,-0.78 -0.07,-0.17 -0.22,-0.31 -0.44,-0.43 0.48,0.01 0.78,0.13 0.89,0.39 0.11,0.25 0.17,0.69 0.17,1.31 V 13.26651 c 0.02,0.43 -0.06,0.74 -0.22,0.93 z M 9.6989383,5.1465097 c 0.04,-0.27 0.16,-0.47 0.3600007,-0.62 0.199999,-0.14 0.55,-0.21 1.039999,-0.21 0.710001,0 1.33,0.08 1.86,0.23 0.53,0.16 1,0.42 1.44,0.79 1.09,0.93 1.63,2.32 1.63,4.1799998 0,0.6200005 -0.06,1.1900005 -0.18,1.7000005 -0.119999,0.51 -0.32,0.96 -0.59,1.36 -0.269999,0.4 -0.65,0.77 -1.12,1.11 -0.41,0.29 -0.83,0.5 -1.28,0.61 -0.449999,0.12 -0.959999,0.18 -1.52,0.18 -0.529999,0 -0.91,-0.05 -1.14,-0.15 -0.2299995,-0.1 -0.3799997,-0.25 -0.4499997,-0.46 -0.06,-0.21 -0.09,-0.54 -0.09,-0.99 V 6.5765097 c -0.02,-0.68 0,-1.16 0.04,-1.43 z M 14.978939,13.36651 c 0.449999,-0.46 0.779999,-1 0.99,-1.62 0.209999,-0.62 0.319999,-1.34 0.319999,-2.1500005 0,-2.6899998 -0.999999,-4.4299998 -2.989999,-5.2199998 0.31,0.06 0.59,0.13 0.85,0.21 0.26,0.08 0.51,0.21 0.75,0.37 0.41,0.27 0.76,0.62 1.05,1.07 0.289999,0.45 0.499999,0.96 0.649999,1.56 0.15,0.6 0.22,1.25 0.22,1.9699998 0,1.0000005 -0.16,1.8600005 -0.46,2.5800005 -0.31,0.72 -0.73,1.27 -1.26,1.66 -0.53,0.39 -1.13,0.62 -1.8,0.69 0.67,-0.29 1.23,-0.66 1.680001,-1.12 z m 8.679999,0.33 c -0.27,0 -0.55,-0.05 -0.85,-0.15 -0.3,-0.1 -0.58,-0.26 -0.84,-0.49 -0.26,-0.23 -0.48,-0.53 -0.64,-0.91 -0.16,-0.38 -0.26,-0.83 -0.28,-1.38 h 4.72 c -0.05,-0.37 -0.11,-0.69 -0.19,-0.9500005 -0.08,-0.26 -0.21,-0.5199998 -0.39,-0.7699998 -0.25,-0.34 -0.59,-0.61 -1.01,-0.81 -0.42,-0.2 -0.87,-0.29 -1.34,-0.29 -0.46,0 -0.9,0.1 -1.31,0.29 -0.41,0.2 -0.77,0.47 -1.08,0.82 -0.31,0.3499998 -0.55,0.7499998 -0.73,1.2100003 -0.17,0.46 -0.26,0.95 -0.26,1.47 0,0.66 0.14,1.25 0.43,1.77 0.29,0.52 0.68,0.92 1.17,1.2 0.49,0.28 1.02,0.41 1.6,0.41 0.42,0 0.83,-0.07 1.21,-0.2 0.39,-0.14 0.74,-0.34 1.07,-0.62 0.32,-0.28 0.6,-0.64 0.84,-1.08 l -0.31,-0.24 c -0.56,0.48 -1.16,0.72 -1.81,0.72 z m -3.23,-3.64 c -0.17,0.44 -0.26,0.93 -0.26,1.48 0,0.87 0.26,1.58 0.78,2.12 0.52,0.54 1.17,0.81 1.94,0.81 0.46,0 0.85,-0.06 1.18,-0.19 0.33,-0.13 0.65,-0.29 0.97,-0.5 -0.31,0.35 -0.68,0.62 -1.13,0.8 -0.45,0.18 -0.89,0.27 -1.33,0.27 -0.76,0 -1.43,-0.29 -2.009999,-0.86 -0.58,-0.58 -0.870001,-1.32 -0.870001,-2.22 0,-1.25 0.49,-2.2600005 1.460001,-3.0300003 -0.31,0.44 -0.56,0.8799998 -0.730001,1.3200003 z m 1.12,-1.0600003 c 0.28,-0.35 0.61,-0.53 1.01,-0.53 0.24,0 0.46,0.06 0.65,0.19 0.19,0.13 0.34,0.31 0.45,0.55 0.11,0.2399998 0.16,0.5099998 0.16,0.8100003 v 0.26 h -2.73 c 0.03,-0.5000005 0.18,-0.9300003 0.46,-1.2800003 z m 2.52,1.1200003 c 0,-0.4900005 -0.07,-0.8600003 -0.22,-1.1100003 -0.15,-0.24 -0.39,-0.44 -0.72,-0.59 0.530001,0.09 0.9,0.28 1.120001,0.56 0.219999,0.28 0.339999,0.7099998 0.359999,1.2900003 h -0.55 v -0.15 z m 7.12,-0.8300003 c -0.05,0.1999998 -0.07,0.3199998 -0.07,0.3599998 0,0.19 0.08,0.3600005 0.23,0.5300005 0.15,0.16 0.35,0.25 0.58,0.25 0.25,0 0.48,-0.08 0.66,-0.25 0.19,-0.17 0.28,-0.3800005 0.28,-0.6300005 0,-0.2899998 -0.11,-0.5599998 -0.32,-0.7999998 -0.22,-0.24 -0.51,-0.44 -0.89,-0.57 -0.38,-0.14 -0.79,-0.21 -1.25,-0.21 -0.57,0 -1.09,0.1 -1.55,0.3 -0.46,0.2 -0.87,0.48 -1.21,0.84 -0.34,0.3599998 -0.6,0.7599998 -0.79,1.2100003 -0.18,0.45 -0.27,0.93 -0.27,1.43 0,0.61 0.15,1.18 0.45,1.7 0.3,0.52 0.7,0.93 1.2,1.23 0.5,0.3 1.03,0.45 1.58,0.45 0.59,0 1.18,-0.16 1.75,-0.48 0.58,-0.32 1.07,-0.77 1.48,-1.37 l -0.27,-0.37 c -0.23,0.25 -0.54,0.45 -0.92,0.61 -0.38,0.16 -0.75,0.24 -1.1,0.24 -0.42,0 -0.81,-0.11 -1.17,-0.34 -0.36,-0.22 -0.64,-0.54 -0.85,-0.94 -0.21,-0.4 -0.32,-0.85 -0.32,-1.35 0,-0.54 0.09,-1.02 0.27,-1.4400005 0.18,-0.4199998 0.43,-0.7499998 0.75,-0.9799998 0.32,-0.23 0.67,-0.34 1.06,-0.34 0.21,0 0.39,0.05 0.53,0.14 0.15,0.1 0.22,0.21 0.22,0.36 0.01,0.09 -0.01,0.22 -0.06,0.42 z m -3.37,0.6500003 c -0.32,0.56 -0.47,1.14 -0.47,1.75 0,0.53 0.13,1 0.39,1.43 0.260001,0.43 0.61,0.76 1.05,1 0.440001,0.24 0.93,0.36 1.460001,0.36 0.42,0 0.969999,-0.11 1.649999,-0.34 -0.63,0.47 -1.3,0.7 -2.02,0.7 -0.489999,0 -0.969999,-0.13 -1.45,-0.4 -0.48,-0.27 -0.859999,-0.64 -1.149999,-1.13 -0.29,-0.48 -0.440001,-1.03 -0.440001,-1.64 0,-0.45 0.09,-0.89 0.27,-1.32 0.18,-0.4300005 0.45,-0.8200005 0.79,-1.1400003 0.350001,-0.33 0.77,-0.59 1.27,-0.77 -0.58,0.44 -1.04,0.94 -1.35,1.5000003 z m 3.63,-0.6300003 c 0.05,-0.15 0.07,-0.27 0.07,-0.36 0,-0.14 -0.06,-0.28 -0.17,-0.45 0.41,0.15 0.61,0.37 0.61,0.66 0,0.07 -0.01,0.15 -0.04,0.2499998 -0.02,0.1 -0.04,0.16 -0.04,0.18 0,0.27 0.16,0.4300005 0.48,0.5000005 -0.21,0.04 -0.34,0.06 -0.38,0.06 -0.15,0 -0.29,-0.04 -0.42,-0.12 -0.13,-0.08 -0.19,-0.2100005 -0.19,-0.3800005 0.01,-0.08 0.03,-0.19 0.08,-0.3399998 z m 2.97,4.9800003 c -0.14,0.13 -0.36,0.2 -0.66,0.2 h -0.189999 v 0.43 h 3.89 v -0.43 h -0.21 c -0.380001,0 -0.61,-0.08 -0.700001,-0.23 -0.09,-0.16 -0.14,-0.44 -0.14,-0.84 V 3.6465097 h -0.3 l -2.539999,0.84 v 0.3 c 0.45,0.17 0.74,0.36 0.869999,0.59 0.12,0.22 0.19,0.53 0.19,0.93 V 13.71651 c 0,0.24 -0.07,0.44 -0.21,0.57 z m 0.83,-0.1 c -0.09,0.19 -0.32,0.29 -0.69,0.3 0.21,-0.2 0.32,-0.48 0.32,-0.84 V 6.3365097 c 0,-0.43 -0.05,-0.78 -0.14,-1.05 -0.1,-0.27 -0.38,-0.47 -0.86,-0.6 0.1,-0.01 0.24,-0.02 0.41,-0.02 0.35,0 0.6,0.07 0.76,0.22 0.16,0.15 0.25,0.33 0.29,0.55 0.03,0.22 0.05,0.52 0.05,0.89 V 13.36651 c 0,0.36 -0.04,0.63 -0.14,0.82 z m 4.88,-5.6500003 c 0.16,-0.1 0.38,-0.15 0.66,-0.15 0.32,0 0.56,0.09 0.73,0.27 0.16,0.18 0.24,0.45 0.24,0.7999998 V 10.63651 c -0.37,0.21 -0.84,0.47 -1.41,0.77 -0.57,0.3 -1.01,0.55 -1.3,0.74 -0.29,0.2 -0.53,0.42 -0.71,0.67 -0.18,0.25 -0.27,0.56 -0.27,0.92 0,0.4 0.15,0.73 0.44,0.99 0.29,0.26 0.69,0.39 1.19,0.39 0.7,0 1.41,-0.31 2.13,-0.93 0.08,0.32 0.21,0.56 0.41,0.71 0.19,0.15 0.46,0.23 0.8,0.23 0.3,0 0.55,-0.07 0.77,-0.2 0.22,-0.13 0.45,-0.32 0.71,-0.58 l -0.29,-0.34 c -0.16,0.17 -0.29,0.26 -0.4,0.26 -0.18,0 -0.27,-0.16 -0.27,-0.48 V 9.8165095 c 0,-0.41 -0.1,-0.7499998 -0.31,-1.0399998 -0.21,-0.29 -0.49,-0.5 -0.84,-0.64 -0.35,-0.14 -0.73,-0.21 -1.14,-0.21 -0.56,0 -1.07,0.08 -1.53,0.25 -0.46,0.17 -0.82,0.38 -1.09,0.64 -0.26,0.26 -0.39,0.53 -0.39,0.7999998 0,0.18 0.08,0.3400005 0.23,0.4800005 0.16,0.14 0.37,0.21 0.63,0.21 0.28,0 0.51,-0.09 0.69,-0.26 0.18,-0.1700005 0.28,-0.3700005 0.28,-0.6000005 0,-0.1099998 -0.03,-0.2399998 -0.1,-0.3699998 -0.07,-0.13 -0.1,-0.21 -0.1,-0.23 0,-0.1 0.08,-0.21 0.24,-0.31 z m -0.48,6.3100003 c -0.329999,0 -0.63,-0.11 -0.909999,-0.32 -0.28,-0.21 -0.42,-0.48 -0.42,-0.79 0,-0.35 0.119999,-0.65 0.35,-0.91 0.229999,-0.25 0.56,-0.5 0.979999,-0.75 -0.28,0.29 -0.479999,0.56 -0.619999,0.79 -0.14,0.24 -0.21,0.49 -0.21,0.75 0,0.36 0.14,0.64 0.43,0.84 0.28,0.19 0.659999,0.29 1.14,0.29 -0.18,0.07 -0.420001,0.1 -0.740001,0.1 z m -0.59,-4.8 c -0.15,0 -0.27,-0.05 -0.38,-0.1400005 -0.11,-0.09 -0.16,-0.19 -0.16,-0.29 0,-0.2299998 0.1,-0.4499998 0.3,-0.6299998 0.2,-0.19 0.48,-0.38 0.85,-0.56 -0.22,0.24 -0.37,0.42 -0.46,0.55 -0.09,0.13 -0.13,0.27 -0.13,0.4299998 0,0.12 0.05,0.22 0.15,0.31 0.1,0.09 0.24,0.12 0.43,0.11 -0.16,0.1500005 -0.35,0.2200005 -0.6,0.2200005 z m 1.69,4.13 c -0.21,0 -0.39,-0.08 -0.55,-0.23 -0.16,-0.15 -0.23,-0.38 -0.23,-0.66 0,-0.43 0.130001,-0.79 0.39,-1.09 0.26,-0.3 0.73,-0.64 1.390001,-1.02 v 2.51 c -0.33,0.33 -0.670001,0.49 -1.000001,0.49 z m 1.17,-5.3300003 c -0.07,-0.2 -0.2,-0.35 -0.41,-0.45 0.380001,0.04 0.64,0.17 0.79,0.37 0.15,0.21 0.23,0.58 0.23,1.1199998 V 13.47651 c 0,0.43 0.06,0.75 0.2,0.95 0.13,0.2 0.35,0.33 0.66,0.38 -0.1,0.04 -0.24,0.06 -0.41,0.06 -0.38,0 -0.64,-0.15 -0.77,-0.45 -0.13,-0.3 -0.2,-0.75 -0.2,-1.36 v -3.09 c 0.01,-0.5500005 -0.03,-0.9200003 -0.09,-1.1200003 z m 5.72,-0.89 -2.47,0.78 v 0.26 c 0.35,0.11 0.6,0.27 0.76,0.4799998 0.16,0.21 0.23,0.4900005 0.23,0.8300005 v 3.46 c 0,0.31 -0.09,0.5 -0.26,0.59 -0.17,0.09 -0.42,0.13 -0.73,0.13 v 0.43 h 3.77 v -0.43 c -0.25,-0.01 -0.439999,-0.03 -0.57,-0.06 -0.13,-0.03 -0.24,-0.11 -0.32,-0.23 -0.08,-0.12 -0.12,-0.3 -0.12,-0.54 V 9.5365095 c 0.340001,-0.3099998 0.66,-0.5499998 0.94,-0.6999998 0.28,-0.15 0.57,-0.23 0.87,-0.23 0.24,0 0.44,0.05 0.61,0.15 0.17,0.1 0.29,0.24 0.38,0.43 0.09,0.19 0.13,0.4199998 0.13,0.6999998 V 13.65651 c 0,0.34 -0.08,0.57 -0.229999,0.68 -0.15,0.11 -0.4,0.16 -0.73,0.16 v 0.43 h 3.77 v -0.43 c -0.33,0 -0.57,-0.04 -0.73,-0.13 -0.16,-0.09 -0.24,-0.3 -0.24,-0.64 v -3.56 c 0,-1.4600003 -0.74,-2.2000003 -2.21,-2.2000003 -0.52,0 -0.96,0.09 -1.33,0.27 -0.37,0.18 -0.78,0.44 -1.21,0.77 v -1.04 h -0.31 z m -1.92,1.03 c 0.02,0 0.06,0 0.13,-0.02 0.07,-0.01 0.11,-0.02 0.14,-0.02 0.24,0 0.46,0.09 0.64,0.28 0.18,0.1899998 0.28,0.4099998 0.28,0.6699998 V 13.62651 c 0,0.52 -0.26,0.8 -0.77,0.85 0.11,-0.12 0.19,-0.24 0.22,-0.34 0.03,-0.1 0.05,-0.27 0.05,-0.51 v -3.59 c 0.01,-0.4800005 -0.22,-0.8300003 -0.69,-1.0500003 z m 5.22,-0.07 c -0.12,-0.22 -0.33,-0.38 -0.61,-0.5 0.5,0.02 0.85,0.15 1.05,0.38 0.2,0.23 0.3,0.58 0.3,1.0199998 V 13.26651 c 0,0.4 -0.04,0.7 -0.13,0.9 -0.09,0.2 -0.27,0.3 -0.54,0.3 h -0.15 c 0.1,-0.1 0.17,-0.19 0.2,-0.26 0.03,-0.07 0.05,-0.14 0.06,-0.22 0.01,-0.08 0.01,-0.19 0.01,-0.36 V 9.7765095 c 0,-0.35 -0.07,-0.6399998 -0.19,-0.8599998 z m 10.99,-5.03 h -3.57 v 0.43 c 0.35,-0.02 0.68,0.03 0.98,0.15 0.3,0.11 0.55,0.29 0.77,0.52 V 12.23651 c 0,0.68 -0.15,1.21 -0.45,1.59 -0.3,0.38 -0.73,0.6 -1.29,0.65 v 0.43 h 3.95 v -0.43 c -0.64,-0.14 -1.09,-0.41 -1.36,-0.82 -0.27,-0.4 -0.41,-0.96 -0.41,-1.68 V 5.5765097 l 3.84,9.3300003 h 0.45 l 3.88,-9.6300003 V 12.81651 c 0,0.46 -0.02,0.8 -0.06,1 -0.04,0.2 -0.17,0.36 -0.4,0.48 -0.22,0.12 -0.59,0.18 -1.09,0.19 v 0.43 h 5.04 v -0.43 c -0.44,-0.03 -0.76,-0.07 -0.96,-0.14 -0.2,-0.07 -0.35,-0.19 -0.44,-0.37 -0.09,-0.18 -0.14,-0.44 -0.14,-0.78 V 6.4465097 c 0,-0.66 0.02,-1.11 0.05,-1.35 0.04,-0.24 0.16,-0.43 0.38,-0.56 0.21,-0.13 0.58,-0.2 1.11,-0.2 v -0.43 h -3.38 l -3.41,8.3500003 z m -2.08,10.1400003 c 0.15,-0.16 0.27,-0.35 0.34,-0.57 0.06,0.23 0.14,0.44 0.26,0.61 0.12,0.17 0.27,0.31 0.46,0.41 h -1.65 c 0.240001,-0.13 0.44,-0.29 0.59,-0.45 z m 0.95,-9.3600003 c 0.22,0.23 0.42,0.6 0.61,1.09 l 3.110001,7.5500003 c 0.11,0.27 0.17,0.48 0.17,0.62 0,0.16 -0.06,0.34 -0.17,0.55 l -3.62,-8.6100003 c -0.19,-0.47 -0.38,-0.81 -0.57,-1.04 -0.19,-0.22 -0.44,-0.39 -0.76,-0.52 h 0.29 c 0.41,0.01 0.73,0.13 0.939999,0.36 z m 8.54,9.5100003 c -0.09,0.21 -0.31,0.31 -0.67,0.31 h -0.27 c 0.230001,-0.13 0.39,-0.26 0.46,-0.4 0.08,-0.14 0.11,-0.39 0.11,-0.77 V 5.7865097 c 0,-0.4 0.01,-0.68 0.03,-0.86 0.02,-0.18 0.08,-0.32 0.16,-0.42 0.09,-0.1 0.24,-0.16 0.45,-0.18 -0.09,0.22 -0.14,0.64 -0.14,1.25 V 13.11651 c 0,0.5 -0.04,0.85 -0.13,1.06 z m 8.17,-0.48 c -0.269999,0 -0.549999,-0.05 -0.849999,-0.15 -0.3,-0.1 -0.58,-0.26 -0.84,-0.49 -0.260001,-0.23 -0.480001,-0.53 -0.640001,-0.91 -0.159999,-0.38 -0.26,-0.83 -0.28,-1.38 h 4.72 c -0.05,-0.37 -0.11,-0.69 -0.19,-0.9500005 -0.08,-0.26 -0.209999,-0.5199998 -0.39,-0.7699998 -0.25,-0.34 -0.59,-0.61 -1.01,-0.81 -0.42,-0.2 -0.87,-0.29 -1.34,-0.29 -0.46,0 -0.9,0.1 -1.31,0.29 -0.41,0.2 -0.77,0.47 -1.08,0.82 -0.31,0.3499998 -0.55,0.7499998 -0.73,1.2100003 -0.17,0.46 -0.26,0.95 -0.26,1.47 0,0.66 0.14,1.25 0.43,1.77 0.29,0.52 0.68,0.92 1.17,1.2 0.49,0.28 1.02,0.41 1.6,0.41 0.42,0 0.83,-0.07 1.21,-0.2 0.39,-0.14 0.74,-0.34 1.07,-0.62 0.32,-0.28 0.6,-0.64 0.84,-1.08 l -0.31,-0.24 c -0.56,0.48 -1.15,0.72 -1.81,0.72 z m -3.23,-3.64 c -0.17,0.44 -0.26,0.93 -0.26,1.48 0,0.87 0.26,1.58 0.78,2.12 0.52,0.54 1.17,0.81 1.94,0.81 0.46,0 0.85,-0.06 1.18,-0.19 0.33,-0.13 0.650001,-0.29 0.97,-0.5 -0.31,0.35 -0.68,0.62 -1.13,0.8 -0.45,0.18 -0.89,0.27 -1.33,0.27 -0.76,0 -1.43,-0.29 -2.01,-0.86 -0.58,-0.58 -0.87,-1.32 -0.87,-2.22 0,-1.25 0.49,-2.2600005 1.46,-3.0300003 -0.31,0.44 -0.56,0.8799998 -0.73,1.3200003 z m 1.12,-1.0600003 c 0.28,-0.35 0.61,-0.53 1.010001,-0.53 0.239999,0 0.459999,0.06 0.65,0.19 0.19,0.13 0.34,0.31 0.45,0.55 0.11,0.2399998 0.16,0.5099998 0.16,0.8100003 v 0.26 h -2.73 c 0.03,-0.5000005 0.18,-0.9300003 0.459999,-1.2800003 z m 2.52,1.1200003 c 0,-0.4900005 -0.07,-0.8600003 -0.22,-1.1100003 -0.15,-0.24 -0.39,-0.44 -0.72,-0.59 0.53,0.09 0.900001,0.28 1.120001,0.56 0.22,0.28 0.34,0.7099998 0.36,1.2900003 h -0.55 v -0.15 z m 3.180001,4.17 c -0.14,0.13 -0.36,0.2 -0.66,0.2 h -0.19 v 0.43 h 3.89 v -0.43 h -0.21 c -0.38,0 -0.61,-0.08 -0.7,-0.23 -0.09,-0.16 -0.14,-0.44 -0.14,-0.84 V 3.6465097 h -0.3 l -2.54,0.84 v 0.3 c 0.45,0.17 0.74,0.36 0.87,0.59 0.12,0.22 0.19,0.53 0.19,0.93 V 13.71651 c 0,0.24 -0.07,0.44 -0.21,0.57 z m 0.829999,-0.1 c -0.09,0.19 -0.319999,0.29 -0.689999,0.3 0.209999,-0.2 0.319999,-0.48 0.319999,-0.84 V 6.3365097 c 0,-0.43 -0.05,-0.78 -0.14,-1.05 -0.1,-0.27 -0.38,-0.47 -0.86,-0.6 0.1,-0.01 0.24,-0.02 0.41,-0.02 0.35,0 0.6,0.07 0.76,0.22 0.16,0.15 0.25,0.33 0.290001,0.55 0.03,0.22 0.05,0.52 0.05,0.89 V 13.36651 c 0,0.36 -0.05,0.63 -0.140001,0.82 z m 7.450001,-4.9000003 c -0.05,0.1999998 -0.07,0.3199998 -0.07,0.3599998 0,0.19 0.08,0.3600005 0.23,0.5300005 0.15,0.16 0.35,0.25 0.58,0.25 0.25,0 0.48,-0.08 0.66,-0.25 0.19,-0.17 0.28,-0.3800005 0.28,-0.6300005 0,-0.2899998 -0.11,-0.5599998 -0.32,-0.7999998 -0.22,-0.24 -0.51,-0.44 -0.89,-0.57 -0.38,-0.14 -0.79,-0.21 -1.25,-0.21 -0.57,0 -1.09,0.1 -1.55,0.3 -0.46,0.2 -0.87,0.48 -1.21,0.84 -0.34,0.3599998 -0.6,0.7599998 -0.79,1.2100003 -0.18,0.45 -0.27,0.93 -0.27,1.43 0,0.61 0.15,1.18 0.45,1.7 0.3,0.52 0.7,0.93 1.2,1.23 0.5,0.3 1.03,0.45 1.58,0.45 0.59,0 1.18,-0.16 1.75,-0.48 0.58,-0.32 1.07,-0.77 1.48,-1.37 l -0.27,-0.37 c -0.23,0.25 -0.54,0.45 -0.92,0.61 -0.38,0.16 -0.75,0.24 -1.1,0.24 -0.42,0 -0.81,-0.11 -1.17,-0.34 -0.36,-0.22 -0.64,-0.54 -0.85,-0.94 -0.21,-0.4 -0.32,-0.85 -0.32,-1.35 0,-0.54 0.09,-1.02 0.27,-1.4400005 0.18,-0.4199998 0.43,-0.7499998 0.75,-0.9799998 0.32,-0.23 0.67,-0.34 1.06,-0.34 0.21,0 0.39,0.05 0.53,0.14 0.15,0.1 0.22,0.21 0.22,0.36 0.01,0.09 -0.02,0.22 -0.06,0.42 z M 86.008938,9.93651 c -0.319999,0.56 -0.47,1.14 -0.47,1.75 0,0.53 0.13,1 0.39,1.43 0.260001,0.43 0.61,0.76 1.05,1 0.44,0.24 0.930001,0.36 1.46,0.36 0.42,0 0.97,-0.11 1.65,-0.34 -0.629999,0.47 -1.3,0.7 -2.019999,0.7 -0.49,0 -0.97,-0.13 -1.450001,-0.4 -0.48,-0.27 -0.86,-0.64 -1.15,-1.13 -0.29,-0.48 -0.44,-1.03 -0.44,-1.64 0,-0.45 0.09,-0.89 0.27,-1.32 0.18,-0.4300005 0.45,-0.8200005 0.79,-1.1400003 0.35,-0.33 0.77,-0.59 1.27,-0.77 -0.59,0.44 -1.04,0.94 -1.35,1.5000003 z m 3.620001,-0.6300003 c 0.05,-0.15 0.07,-0.27 0.07,-0.36 0,-0.14 -0.06,-0.28 -0.17,-0.45 0.41,0.15 0.61,0.37 0.61,0.66 0,0.07 -0.01,0.15 -0.04,0.2499998 -0.02,0.1 -0.04,0.16 -0.04,0.18 0,0.27 0.16,0.4300005 0.48,0.5000005 -0.21,0.04 -0.34,0.06 -0.38,0.06 -0.15,0 -0.29,-0.04 -0.42,-0.12 -0.13,-0.08 -0.19,-0.2100005 -0.19,-0.3800005 0.01,-0.08 0.04,-0.19 0.08,-0.3399998 z M 100.24893,14.48651 c -0.279997,0 -0.479994,-0.05 -0.609991,-0.14 -0.12,-0.09 -0.19,-0.21 -0.21,-0.34 -0.02,-0.13 -0.03,-0.35 -0.03,-0.66 v -3.24 c 0,-0.4700005 -0.09,-0.8600003 -0.27,-1.1800003 -0.18,-0.32 -0.44,-0.56 -0.77,-0.72 -0.33,-0.16 -0.73,-0.24 -1.18,-0.24 -0.44,0 -0.88,0.09 -1.32,0.27 -0.44,0.18 -0.84,0.43 -1.22,0.76 v -5.27 h -0.32 l -2.59,0.82 v 0.32 c 0.73,0.18 1.1,0.63 1.1,1.34 V 13.82651 c 0,0.29 -0.08,0.47 -0.23,0.54 -0.16,0.08 -0.41,0.12 -0.76,0.13 v 0.43 h 3.86 v -0.43 c -0.42,-0.02 -0.7,-0.08 -0.84,-0.18 -0.14,-0.1 -0.21,-0.31 -0.21,-0.61 V 9.5165095 c 0.71,-0.6399998 1.32,-0.9599998 1.84,-0.9599998 0.31,0 0.57,0.11 0.79,0.34 0.22,0.23 0.33,0.5799998 0.33,1.0700003 v 3.66 c 0,0.18 -0.02,0.33 -0.06,0.45 -0.04,0.12 -0.1,0.2 -0.18,0.26 -0.08,0.06 -0.18,0.1 -0.29,0.11 -0.11,0.02 -0.26,0.03 -0.46,0.04 v 0.43 h 3.829991 v -0.43 z M 92.888938,5.3265097 c -0.13,-0.22 -0.39,-0.4 -0.77,-0.54 0.200001,-0.04 0.35,-0.05 0.430001,-0.05 0.19,0 0.37,0.05 0.54,0.16 0.17,0.1 0.3,0.24 0.38,0.41 0.09,0.19 0.14,0.47 0.14,0.84 V 13.67651 c 0,0.25 -0.06,0.44 -0.180001,0.57 -0.12,0.13 -0.239999,0.2 -0.359999,0.2 h -0.21 c 0.09,-0.1 0.15,-0.21 0.18,-0.32 0.03,-0.11 0.04,-0.28 0.04,-0.51 V 6.2065097 c 0.01,-0.37 -0.06,-0.65 -0.190001,-0.88 z m 4.1,3.07 c 0.42,0.02 0.72,0.1 0.92,0.25 0.2,0.14 0.33,0.33 0.38,0.55 0.06,0.2299998 0.09,0.5399998 0.09,0.9500003 v 3.33 c 0,0.34 -0.06,0.59 -0.17,0.75 -0.11,0.16 -0.33,0.24 -0.67,0.24 0.11,-0.11 0.19,-0.21 0.23,-0.31 0.05,-0.1 0.07,-0.25 0.07,-0.45 V 9.6465095 c 0.01,-0.6199998 -0.27,-1.0399998 -0.85,-1.2499998 z m 4.599992,5.0100003 c 0.31,0.54 0.74,0.96 1.28,1.25 0.54,0.29 1.13,0.45 1.79,0.45 0.48,0 0.94,-0.09 1.36,-0.27 0.42,-0.18 0.8,-0.43 1.12,-0.75 0.33,-0.33 0.58,-0.71 0.77,-1.16 0.18,-0.45 0.28,-0.93 0.28,-1.43 0,-0.66 -0.15,-1.26 -0.46,-1.8000005 -0.31,-0.5399998 -0.73,-0.9699998 -1.26,-1.2699998 -0.53,-0.31 -1.12,-0.46 -1.77,-0.46 -0.66,0 -1.26,0.16 -1.81,0.47 -0.54,0.32 -0.97,0.75 -1.29,1.2999998 -0.32,0.5500005 -0.47,1.1600005 -0.47,1.8300005 -0.01,0.68 0.15,1.3 0.46,1.84 z m 1.22,0.91 c -0.31,-0.21 -0.57,-0.45 -0.79,-0.73 -0.21,-0.28 -0.37,-0.59 -0.48,-0.93 -0.11,-0.34 -0.16,-0.69 -0.16,-1.05 0,-0.48 0.08,-0.94 0.25,-1.38 0.17,-0.4300005 0.43,-0.8200005 0.78,-1.1600003 0.35,-0.34 0.79,-0.6 1.32,-0.79 -0.4,0.3 -0.73,0.58 -0.99,0.86 -0.26,0.2799998 -0.48,0.6099998 -0.64,1.0000003 -0.16,0.39 -0.24,0.83 -0.24,1.34 0,0.67 0.17,1.29 0.51,1.85 0.34,0.56 0.85,1.05 1.52,1.46 -0.41,-0.1 -0.77,-0.26 -1.08,-0.47 z m 0.66,-5.2500003 c 0.28,-0.46 0.66,-0.68 1.16,-0.68 0.51,0 0.91,0.3 1.2,0.91 0.29,0.6099998 0.43,1.4500003 0.43,2.5400003 0,0.61 -0.07,1.13 -0.2,1.56 -0.13,0.42 -0.31,0.75 -0.54,0.96 -0.22,0.22 -0.47,0.32 -0.73,0.32 -0.52,0 -0.94,-0.32 -1.26,-0.95 -0.32,-0.63 -0.48,-1.5 -0.48,-2.61 0.01,-0.91 0.14,-1.6000005 0.42,-2.0500003 z m 2.87,4.2800003 c 0.12,-0.38 0.18,-0.86 0.18,-1.43 0,-0.9 -0.08,-1.61 -0.24,-2.1400005 -0.16,-0.5299998 -0.42,-0.9799998 -0.79,-1.3399998 1.02,0.51 1.53,1.5900003 1.53,3.2400003 0,0.67 -0.1,1.24 -0.31,1.7 -0.21,0.46 -0.51,0.8 -0.9,1.02 0.24,-0.32 0.41,-0.67 0.53,-1.05 z m 5.08,-5.3900003 -2.34,0.8 v 0.25 c 0.28,0.09 0.49,0.24 0.64,0.4299998 0.15,0.19 0.23,0.4 0.23,0.6200005 v 3.59 c 0,0.31 -0.06,0.52 -0.19,0.64 -0.13,0.12 -0.35,0.19 -0.68,0.2 v 0.43 h 3.65 v -0.43 c -0.29,-0.01 -0.5,-0.04 -0.64,-0.09 -0.14,-0.05 -0.23,-0.13 -0.28,-0.25 -0.05,-0.12 -0.07,-0.3 -0.07,-0.54 V 7.9565097 Z m -1.86,1 c 0.07,-0.01 0.17,-0.02 0.29,-0.02 0.26,0 0.47,0.09 0.63,0.27 0.16,0.18 0.24,0.4399998 0.24,0.7700003 v 3.66 c 0,0.3 -0.07,0.51 -0.2,0.64 -0.13,0.13 -0.34,0.2 -0.63,0.2 0.21,-0.16 0.32,-0.39 0.32,-0.69 v -3.71 c 0,-0.5100005 -0.22,-0.8900003 -0.65,-1.1200003 z m 0.68,-4.67 c -0.17,0.1 -0.3,0.23 -0.4,0.4 -0.1,0.17 -0.14,0.35 -0.14,0.54 0,0.3 0.11,0.55 0.32,0.77 0.21,0.22 0.47,0.33 0.77,0.33 0.2,0 0.38,-0.05 0.55,-0.15 0.17,-0.1 0.31,-0.23 0.41,-0.4 0.1,-0.17 0.15,-0.35 0.15,-0.55 0,-0.2 -0.05,-0.38 -0.15,-0.55 -0.1,-0.17 -0.23,-0.3 -0.41,-0.39 -0.17,-0.1 -0.36,-0.14 -0.55,-0.14 -0.2,0 -0.38,0.05 -0.55,0.14 z m 0.19,0.95 c 0,0.18 0.04,0.33 0.12,0.45 0.08,0.12 0.2,0.25 0.37,0.4 -0.32,-0.02 -0.56,-0.1 -0.72,-0.26 -0.16,-0.16 -0.24,-0.36 -0.24,-0.61 0,-0.25 0.08,-0.46 0.25,-0.6 0.17,-0.15 0.4,-0.22 0.71,-0.22 -0.33,0.22 -0.49,0.5 -0.49,0.84 z m 5.42,2.72 -2.52,0.8 v 0.27 c 0.74,0.22 1.12,0.6399998 1.12,1.2300003 v 3.51 c 0,0.48 -0.3,0.72 -0.91,0.72 h -0.21 v 0.43 h 4.2 v -0.43 c -0.4,0 -0.67,-0.01 -0.83,-0.04 -0.16,-0.03 -0.28,-0.1 -0.35,-0.21 -0.08,-0.11 -0.11,-0.31 -0.11,-0.58 V 9.8865095 c 0.12,-0.14 0.24,-0.24 0.33,-0.32 0.1,-0.08 0.19,-0.11 0.29,-0.11 0.05,0 0.1,0.01 0.14,0.04 0.04,0.03 0.09,0.06 0.15,0.11 0.06,0.05 0.11,0.09 0.16,0.13 0.09,0.07 0.2,0.12 0.33,0.16 0.13,0.04 0.25,0.06 0.36,0.06 0.24,0 0.45,-0.100007 0.61,-0.290007 0.16,-0.2 0.24,-0.4399998 0.24,-0.7299998 0,-0.28 -0.09,-0.51 -0.27,-0.7 -0.18,-0.18 -0.4,-0.28 -0.66,-0.28 -0.3,0 -0.56,0.09 -0.77,0.26 -0.21,0.17 -0.52,0.49 -0.92,0.94 v -1.2 z m -1.97,1.05 c 0.03,0 0.09,0 0.18,-0.02 0.09,-0.01 0.15,-0.02 0.17,-0.02 0.34,0 0.59,0.1 0.74,0.3 0.15,0.1999998 0.23,0.5299998 0.23,0.9800003 v 3.3 c 0,0.33 -0.07,0.56 -0.2,0.69 -0.13,0.13 -0.34,0.21 -0.64,0.24 0.11,-0.1 0.19,-0.19 0.25,-0.28 0.06,-0.09 0.09,-0.22 0.09,-0.39 v -3.55 c 0,-0.5900005 -0.27,-1.0100003 -0.82,-1.2500003 z m 3.42,-0.14 c 0.13,0 0.29,0.08 0.49,0.24 0.16,0.1 0.31,0.16 0.47,0.16 0.07,0 0.17,-0.04 0.32,-0.11 -0.12,0.3499998 -0.32,0.5199998 -0.59,0.5199998 -0.22,0 -0.49,-0.13 -0.81,-0.3799998 -0.14,-0.09 -0.28,-0.14 -0.42,-0.14 0.23,-0.19 0.41,-0.29 0.54,-0.29 z M 2.168938,17.42651 H 122.29893"
   id="path1" />&#10;</svg>
